<svg width="36" height="36" viewBox="0 0 36 36" fill="none" xmlns="http://www.w3.org/2000/svg">
<path d="M18 10.6875C13.9289 10.6875 10.6172 13.9992 10.6172 18.0703C10.6172 22.1414 13.9289 25.4531 18 25.4531C22.0711 25.4531 25.3828 22.1414 25.3828 18.0703C25.3828 13.9992 22.0711 10.6875 18 10.6875ZM18 10.6875C13.9289 10.6875 10.6172 13.9992 10.6172 18.0703C10.6172 22.1414 13.9289 25.4531 18 25.4531C22.0711 25.4531 25.3828 22.1414 25.3828 18.0703C25.3828 13.9992 22.0711 10.6875 18 10.6875ZM30.7266 0H5.27344C2.3625 0 0 2.3625 0 5.27344V30.7266C0 33.6375 2.3625 36 5.27344 36H30.7266C33.6375 36 36 33.6375 36 30.7266V5.27344C36 2.3625 33.6375 0 30.7266 0ZM18 27.5625C12.7688 27.5625 8.50781 23.3015 8.50781 18.0703C8.50781 12.839 12.7688 8.57812 18 8.57812C23.2312 8.57812 27.4922 12.839 27.4922 18.0703C27.4922 23.3015 23.2312 27.5625 18 27.5625ZM29.6016 8.57812C28.4414 8.57812 27.4922 7.62891 27.4922 6.46875C27.4922 5.30859 28.4414 4.35938 29.6016 4.35938C30.7617 4.35938 31.7109 5.30859 31.7109 6.46875C31.7109 7.62891 30.7617 8.57812 29.6016 8.57812ZM18 10.6875C13.9289 10.6875 10.6172 13.9992 10.6172 18.0703C10.6172 22.1414 13.9289 25.4531 18 25.4531C22.0711 25.4531 25.3828 22.1414 25.3828 18.0703C25.3828 13.9992 22.0711 10.6875 18 10.6875ZM18 10.6875C13.9289 10.6875 10.6172 13.9992 10.6172 18.0703C10.6172 22.1414 13.9289 25.4531 18 25.4531C22.0711 25.4531 25.3828 22.1414 25.3828 18.0703C25.3828 13.9992 22.0711 10.6875 18 10.6875ZM18 10.6875C13.9289 10.6875 10.6172 13.9992 10.6172 18.0703C10.6172 22.1414 13.9289 25.4531 18 25.4531C22.0711 25.4531 25.3828 22.1414 25.3828 18.0703C25.3828 13.9992 22.0711 10.6875 18 10.6875Z" fill="#FFF9F1"/>
</svg>
