<svg width="36" height="36" viewBox="0 0 36 36" fill="none" xmlns="http://www.w3.org/2000/svg">
<path d="M18.0001 0C8.10725 0 0.000332016 8.10692 0.000332016 17.9998C0.000332016 21.2692 0.956498 24.5036 2.62302 27.2879L0.053136 34.618C-0.0734248 34.9977 0.0320425 35.3985 0.306257 35.6937C0.601566 35.9679 1.02351 36.0735 1.38202 35.9469L8.78231 33.4472C11.5666 35.1135 14.7307 35.9293 18.0002 35.9293C27.893 35.9293 35.9999 27.8927 35.9999 17.9998C35.9999 8.10699 27.8929 0 18.0001 0ZM28.9476 25.4879L28.1038 26.3317C25.6716 28.7031 18.1415 27.9074 13.2119 22.9777C8.19162 17.9364 7.57998 10.3639 9.85808 8.08576L10.7017 7.24195C11.5877 6.37719 13.001 6.37719 13.8658 7.24195L17.2197 10.5959C18.0845 11.4606 18.0845 12.895 17.2197 13.7599L16.3759 14.6037C15.8696 15.1099 15.8696 15.9536 16.3759 16.4598L19.7298 19.8137C20.2361 20.32 21.0798 20.32 21.586 19.8137L22.4297 18.9699C23.2735 18.1262 24.7501 18.1262 25.5937 18.9699L28.9477 22.3238C29.3695 22.7457 29.6016 23.2942 29.6016 23.9059C29.6015 24.4965 29.3695 25.066 28.9476 25.4879ZM23.0835 21.2903C21.7548 22.6403 19.5821 22.6403 18.232 21.2903L14.8993 17.9575C13.5494 16.6075 13.5494 14.435 14.8993 13.106L15.7219 12.2622L12.3893 8.73972L11.3556 9.56237C10.0901 10.8491 10.301 17.0716 14.7096 21.4801C19.1182 25.8887 25.3406 26.0996 26.6274 24.834L27.45 23.9902L24.0962 20.4677L23.0835 21.2903Z" fill="#FFF9F1"/>
</svg>
