<svg width="36" height="32" viewBox="0 0 36 32" fill="none" xmlns="http://www.w3.org/2000/svg">
<path d="M0.635866 15.3575L8.93098 18.4535L12.1417 28.7791C12.3471 29.4404 13.1558 29.6849 13.6926 29.246L18.3164 25.4766C18.8011 25.0817 19.4915 25.062 19.998 25.4297L28.3377 31.4845C28.9119 31.9019 29.7254 31.5872 29.8694 30.8934L35.9787 1.50646C36.1359 0.74854 35.3912 0.116261 34.6695 0.395381L0.626146 13.5283C-0.213974 13.8523 -0.206654 15.0417 0.635866 15.3575ZM11.6243 16.8054L27.836 6.82054C28.1274 6.64162 28.4271 7.03558 28.1769 7.26766L14.7975 19.7045C14.3273 20.1422 14.0239 20.7281 13.938 21.3639L13.4822 24.7415C13.4219 25.1924 12.7884 25.2372 12.6639 24.8007L10.9111 18.6417C10.7103 17.9393 11.0029 17.1889 11.6243 16.8054Z" fill="#FFF9F1"/>
</svg>
